<?xml version="1.0" standalone="no"?>
<!DOCTYPE svg PUBLIC "-//W3C//DTD SVG 20010904//EN"
 "http://www.w3.org/TR/2001/REC-SVG-20010904/DTD/svg10.dtd">
<svg version="1.0" xmlns="http://www.w3.org/2000/svg"
 width="512.000000pt" height="512.000000pt" viewBox="0 0 512.000000 512.000000"
 preserveAspectRatio="xMidYMid meet">

<g transform="translate(0.000000,512.000000) scale(0.100000,-0.100000)"
fill="#fff" stroke="none">
<path d="M2970 4778 c-72 -37 -84 -68 -90 -238 -5 -127 -9 -151 -30 -195 -31
-63 -92 -124 -155 -156 -50 -24 -50 -24 -470 -30 -457 -6 -467 -7 -590 -68
-174 -87 -299 -250 -339 -444 -9 -42 -16 -124 -16 -182 l0 -105 159 0 159 0 4
123 c3 105 7 129 28 172 31 63 92 124 155 156 50 24 50 24 470 30 457 6 466 7
590 68 87 43 173 117 232 199 88 123 123 245 123 437 0 106 -3 126 -22 165
-25 48 -89 90 -138 90 -14 0 -46 -10 -70 -22z"/>
<path d="M543 3181 c-72 -24 -127 -65 -163 -120 -63 -94 -61 -48 -58 -1162 l3
-1014 26 -56 c33 -71 87 -125 158 -158 l56 -26 1995 0 1995 0 56 26 c71 33
125 87 158 158 l26 56 0 1035 0 1035 -26 56 c-33 71 -87 125 -158 158 l-56 26
-1980 2 c-1885 2 -1982 2 -2032 -16z m503 -327 c64 -47 69 -63 69 -214 0 -124
-2 -141 -21 -166 -47 -64 -63 -69 -214 -69 -124 0 -141 2 -166 21 -60 44 -69
66 -72 186 -5 135 1 168 35 209 44 52 73 59 215 57 110 -3 130 -6 154 -24z
m640 0 c64 -47 69 -63 69 -214 0 -124 -2 -141 -21 -166 -47 -64 -63 -69 -214
-69 -124 0 -141 2 -166 21 -60 44 -69 66 -72 186 -5 135 1 168 35 209 44 52
73 59 215 57 110 -3 130 -6 154 -24z m640 0 c64 -47 69 -63 69 -214 0 -124 -2
-141 -21 -166 -47 -64 -63 -69 -214 -69 -124 0 -141 2 -166 21 -60 44 -69 66
-72 186 -5 135 1 168 35 209 44 52 73 59 215 57 110 -3 130 -6 154 -24z m640
0 c64 -47 69 -63 69 -214 0 -124 -2 -141 -21 -166 -47 -64 -63 -69 -214 -69
-124 0 -141 2 -166 21 -60 44 -69 66 -72 186 -5 135 1 168 35 209 44 52 73 59
215 57 110 -3 130 -6 154 -24z m640 0 c64 -47 69 -63 69 -214 0 -124 -2 -141
-21 -166 -47 -64 -63 -69 -214 -69 -124 0 -141 2 -166 21 -60 44 -69 66 -72
186 -5 135 1 168 35 209 44 52 73 59 215 57 110 -3 130 -6 154 -24z m800 0
c15 -11 37 -33 48 -48 21 -27 21 -38 21 -486 0 -448 0 -459 -21 -486 -47 -64
-63 -69 -214 -69 -151 0 -167 5 -214 69 -19 25 -21 45 -26 264 -3 160 -9 244
-17 258 -7 12 -36 41 -64 65 -69 58 -79 85 -79 218 0 116 8 151 43 190 44 47
67 51 289 48 191 -2 209 -4 234 -23z m-3200 -640 c64 -47 69 -63 69 -214 0
-151 -5 -167 -69 -214 -26 -20 -41 -21 -246 -21 -205 0 -220 1 -246 21 -60 44
-69 66 -72 186 -5 135 1 168 35 209 47 55 67 59 295 56 191 -2 209 -4 234 -23z
m640 0 c64 -47 69 -63 69 -214 0 -124 -2 -141 -21 -166 -47 -64 -63 -69 -214
-69 -124 0 -141 2 -166 21 -60 44 -69 66 -72 186 -5 135 1 168 35 209 44 52
73 59 215 57 110 -3 130 -6 154 -24z m640 0 c64 -47 69 -63 69 -214 0 -124 -2
-141 -21 -166 -47 -64 -63 -69 -214 -69 -124 0 -141 2 -166 21 -60 44 -69 66
-72 186 -5 135 1 168 35 209 44 52 73 59 215 57 110 -3 130 -6 154 -24z m640
0 c64 -47 69 -63 69 -214 0 -124 -2 -141 -21 -166 -47 -64 -63 -69 -214 -69
-124 0 -141 2 -166 21 -60 44 -69 66 -72 186 -5 135 1 168 35 209 44 52 73 59
215 57 110 -3 130 -6 154 -24z m640 0 c64 -47 69 -63 69 -214 0 -124 -2 -141
-21 -166 -47 -64 -63 -69 -214 -69 -124 0 -141 2 -166 21 -60 44 -69 66 -72
186 -5 135 1 168 35 209 44 52 73 59 215 57 110 -3 130 -6 154 -24z m-2400
-640 c64 -47 69 -63 69 -214 0 -151 -5 -167 -69 -214 -26 -20 -40 -21 -326
-21 -286 0 -300 1 -326 21 -60 44 -69 66 -72 186 -5 135 1 168 35 209 49 57
60 59 375 56 272 -2 288 -3 314 -23z m2080 0 c64 -47 69 -63 69 -214 0 -151
-5 -167 -69 -214 -27 -21 -34 -21 -886 -21 -852 0 -859 0 -886 21 -60 44 -69
66 -72 186 -5 135 1 168 35 209 52 61 10 59 935 56 838 -2 847 -2 874 -23z
m960 0 c64 -47 69 -63 69 -214 0 -151 -5 -167 -69 -214 -26 -20 -40 -21 -326
-21 -286 0 -300 1 -326 21 -60 44 -69 66 -72 186 -5 135 1 168 35 209 49 57
60 59 375 56 272 -2 288 -3 314 -23z"/>
</g>
</svg>
